<svg width="18" height="18" viewBox="0 0 22 23" fill="none" xmlns="http://www.w3.org/2000/svg">
<g filter="url(#filter0_d)">
<circle cx="10.7849" cy="10.5264" r="7.59259" fill="#2F23AC"/>
<circle cx="10.7849" cy="10.5264" r="7.46605" stroke="#C7C3F1" stroke-width="0.253086"/>
</g>
<g clip-path="url(#clip0)">
<path d="M9.80987 13.6374C9.73038 13.7174 9.62193 13.762 9.50927 13.762C9.39661 13.762 9.28816 13.7174 9.20867 13.6374L6.80802 11.2364C6.55889 10.9872 6.55889 10.5832 6.80802 10.3346L7.10862 10.0339C7.35783 9.78476 7.76135 9.78476 8.01049 10.0339L9.50927 11.5328L13.5592 7.48275C13.8084 7.23361 14.2123 7.23361 14.4611 7.48275L14.7617 7.78342C15.0108 8.03256 15.0108 8.43647 14.7617 8.68522L9.80987 13.6374Z" fill="white"/>
</g>
<defs>
<filter id="filter0_d" x="0.155224" y="0.909147" width="21.2593" height="21.2593" filterUnits="userSpaceOnUse" color-interpolation-filters="sRGB">
<feFlood flood-opacity="0" result="BackgroundImageFix"/>
<feColorMatrix in="SourceAlpha" type="matrix" values="0 0 0 0 0 0 0 0 0 0 0 0 0 0 0 0 0 0 127 0" result="hardAlpha"/>
<feOffset dy="1.01235"/>
<feGaussianBlur stdDeviation="1.51852"/>
<feColorMatrix type="matrix" values="0 0 0 0 0.733333 0 0 0 0 0.856241 0 0 0 0 1 0 0 0 1 0"/>
<feBlend mode="normal" in2="BackgroundImageFix" result="effect1_dropShadow"/>
<feBlend mode="normal" in="SourceGraphic" in2="effect1_dropShadow" result="shape"/>
</filter>
<clipPath id="clip0">
<rect width="8.32736" height="8.32736" fill="white" transform="translate(6.62128 6.36279)"/>
</clipPath>
</defs>
</svg>
